<?xml version="1.0" ?><!DOCTYPE svg  PUBLIC '-//W3C//DTD SVG 1.1//EN'  'http://www.w3.org/Graphics/SVG/1.1/DTD/svg11.dtd'><svg width="32px" height="32px" viewBox="0 0 32 32" enable-background="new 0 0 32 32" version="1.1" xml:space="preserve" xmlns="http://www.w3.org/2000/svg" xmlns:xlink="http://www.w3.org/1999/xlink"><g id="Layer_2"/><g id="Layer_3"/><g id="Layer_4"/><g id="Layer_5"/><g id="Layer_6"/><g id="Layer_7"/><g id="Layer_8"/><g id="Layer_9"><g><path d="M15.93,26.94c0,0.56-0.42,1.01-1.01,1h-0.11c-5.68-0.55-10.2-5.07-10.75-10.75    c-0.03-0.35,0.12-0.68,0.39-0.89c0.26-0.21,0.62-0.27,0.95-0.15l7.2599,2.59c0.28,0.1,0.5,0.32,0.6,0.6l2.53,7.09    C15.88,26.58,15.93,26.75,15.93,26.94z" fill="#2197F3"/></g><g><path d="M27.94,17.19c-0.55,5.68-5.07,10.2-10.75,10.75h-0.1c-0.31,0-0.6-0.14-0.79-0.39    c-0.21-0.26-0.27-0.62-0.15-0.95l2.59-7.26c0.1-0.28,0.32-0.5,0.6-0.6L26.6,16.15c0.32-0.12,0.69-0.06,0.95,0.15    C27.83,16.51,27.97,16.84,27.94,17.19z" fill="#2197F3"/></g><g><path d="M15.85,5.4l-2.59,7.26c-0.1,0.28-0.32,0.5-0.6,0.6L5.4,15.85c-0.11,0.04-0.23,0.06-0.34,0.06    c-0.22,0-0.44-0.07-0.61-0.21c-0.27-0.21-0.42-0.54-0.39-0.89C4.61,9.13,9.13,4.61,14.81,4.06c0.35-0.02,0.68,0.11,0.89,0.39    C15.91,4.71,15.97,5.07,15.85,5.4z" fill="#2197F3"/></g><g><path d="M27.96,14.91c0,0.55-0.45,1-1,1c-0.01,0-0.01,0-0.02,0c-0.11,0-0.23-0.02-0.34-0.06L19.34,13.26    c-0.28-0.1-0.5-0.32-0.6-0.6L16.15,5.4c-0.12-0.33-0.06-0.69,0.15-0.95c0.21-0.28,0.54-0.42,0.89-0.39    C22.8,4.6,27.28,9.02,27.91,14.61C27.94,14.7,27.96,14.81,27.96,14.91z" fill="#2197F3"/></g><g><path d="M31,16c0,0.42-0.27,0.8-0.66,0.94l-9.88,3.52l-3.52,9.88C16.8,30.73,16.42,31,16,31s-0.8-0.27-0.94-0.66    l-3.52-9.88l-9.88-3.52C1.27,16.8,1,16.42,1,16c0-0.42,0.27-0.8,0.66-0.94l9.88-3.52l3.52-9.88C15.2,1.27,15.58,1,16,1    s0.8,0.27,0.94,0.66l3.52,9.88l9.88,3.52C30.73,15.2,31,15.58,31,16z" fill="#3F51B5"/></g></g><g id="Layer_10"/><g id="Layer_11"/><g id="Layer_12"/><g id="Layer_13"/><g id="Layer_14"/><g id="Layer_15"/><g id="Layer_16"/><g id="Layer_17"/><g id="Layer_18"/><g id="Layer_19"/><g id="Maps_11_"/><g id="Maps_10_"/><g id="Maps_9_"/><g id="Maps_8_"/><g id="Maps_7_"/><g id="Maps_6_"/><g id="Maps_5_"/><g id="Maps_4_"/><g id="Maps_3_"/><g id="Maps_2_"/><g id="Maps_1_"/><g id="Maps"/></svg>